<?xml version="1.0" encoding="UTF-8"?>
<svg id="Layer_2" xmlns="http://www.w3.org/2000/svg" viewBox="0 0 529.6 204.93">
  <defs>
    <style>
      .cls-1 {
        fill: #00a5eb;
      }
    </style>
  </defs>
  <g id="Layer_1-2" data-name="Layer_1">
    <path class="cls-1" d="M143.07,73.46c-14.2-19.98-42.07-26.29-63.63-14.72-21.56,11.04-31.55,37.34-23.66,59.95,7.36,22.09,29.98,35.76,53.11,33.13,5.78-.53,11.57-2.63,17.35-5.26,4.73-2.63,9.47-7.89,15.25-6.84,5.26,1.05,8.41,6.84,6.31,11.57-2.1,4.73-8.94,8.41-13.67,10.52-21.04,11.04-46.8,9.99-66.79-2.63-18.41-11.57-30.5-31.55-31.55-53.64-1.05-23.66,10.52-46.8,29.98-59.43,19.46-13.15,45.23-14.72,66.26-4.73,21.04,9.99,35.76,30.5,37.86,54.17.53,5.26,1.05,13.15-.53,18.41-2.1,6.31-10.52,7.89-14.72,3.16-2.63-3.16-1.58-7.89-1.58-12.62.53-6.31-.53-12.1-2.63-17.88-2.1-4.73-4.73-8.94-7.36-13.15ZM72.08,111.85c1.58,5.26,4.21,9.99,7.89,14.2,7.89,7.89,19.98,11.57,31.03,8.94,12.1-2.63,21.56-12.1,24.19-24.19,1.58-5.78,1.05-12.1-1.05-17.88-2.1-5.78-7.89-11.04-14.2-5.78-3.68,2.63-3.16,6.84-1.58,10.52,1.05,3.68,1.58,7.36,0,11.04-4.21,11.04-19.46,15.25-28.92,3.16-.53-.53-1.05-1.58-1.05-2.1-2.1-6.31,1.05-11.57-3.68-15.25-2.63-2.1-6.31-2.63-8.94-1.05-6.31,3.16-5.26,12.1-3.68,18.41ZM187.25,160.23c22.09-32.61,23.66-76.25,3.16-109.91-3.68-5.78-8.94-17.35-17.88-15.78-3.68,1.05-6.84,4.73-6.84,8.41,0,4.73,4.73,9.99,7.36,13.67,10.52,16.3,15.78,35.76,13.67,55.22-4.21,36.29-32.08,66.79-67.84,73.62-36.29,7.36-74.15-10.52-91.5-43.65-15.78-29.45-11.57-67.31,9.99-93.61,9.99-11.57,22.61-20.51,37.34-25.77,7.36-2.63,14.2-3.68,22.09-4.21,3.68,0,8.41,0,11.57-2.63,3.16-2.63,4.21-6.84,2.63-10.52-3.68-7.36-14.2-4.73-21.04-4.21-7.89,1.05-15.78,3.16-23.14,5.78-14.2,5.26-27.35,14.2-37.86,25.24C5.81,55.58-4.18,88.71,1.61,120.79c6.84,36.29,33.13,67.31,68.37,78.88,34.18,11.57,73.1,3.68,100.44-19.98,6.31-5.78,12.1-12.1,16.83-19.46ZM277.45,174.11c0,3.09,1.96,5.07,5,5.07,6.18,0,12.35,0,18.53,0,3.38,0,5.28-1.88,5.28-5.22,0-20.41.01-40.82-.03-61.23,0-1.19.31-1.53,1.52-1.53,8.49.05,16.98.03,25.48.03,2.88,0,4.23-1.34,4.23-4.24,0-5.16,0-10.33,0-15.49,0-3.24-1.33-4.58-4.56-4.58-8.25,0-16.5,0-24.75,0-2.15,0-1.89.22-1.89-1.96-.01-5.07,0-10.13,0-15.2,0-1.59.08-3.17.31-4.76,1.07-7.32,6.03-11.83,13.4-12.13,4.2-.17,8.25.64,12.24,1.82,4.83,1.43,5.78,1,7.59-3.71,1.54-4,3.12-7.99,4.58-12.02,1.02-2.81.45-4.16-2.19-5.58-.89-.48-1.81-.92-2.76-1.27-11.57-4.2-23.37-4.95-35.24-1.71-12.23,3.33-20.71,10.95-24.72,23.19-1.53,4.68-1.99,9.52-2.02,14.4-.05,5.79-.05,11.58.02,17.37.02,1.32-.39,1.63-1.64,1.59-2.7-.09-5.4-.06-8.11-.02-2.2.03-3.71,1.58-3.71,3.76,0,5.6,0,11.19,0,16.79,0,2.3,1.46,3.74,3.8,3.75,2.7.01,5.41.06,8.11-.02,1.2-.04,1.54.32,1.54,1.53-.05,10.23-.03,20.46-.03,30.69,0,10.23,0,20.46,0,30.69ZM464.37,128.34c0-5.94-.04-11.87.03-17.81.01-1.24-.37-1.53-1.55-1.5-2.7.08-5.4.04-8.11.02-2.32-.01-3.9-1.58-3.9-3.89-.01-5.5-.01-11,0-16.5,0-2.46,1.49-3.9,3.98-3.91,2.7,0,5.41-.05,8.11.02,1.11.03,1.48-.25,1.47-1.43-.06-6.22-.03-12.45-.03-18.67,0-2.64,2.09-4.73,4.75-4.73,6.37,0,12.74,0,19.11,0,2.83,0,4.85,2.06,4.86,4.92,0,6.18.03,12.35-.02,18.53,0,1.08.27,1.38,1.36,1.38,8.78-.05,17.56-.03,26.35-.02,2.85,0,4.17,1.3,4.17,4.1,0,5.4,0,10.81,0,16.21,0,2.55-1.46,4-4.05,4-8.73,0-17.47.02-26.2-.02-1.18,0-1.66.16-1.65,1.54.07,10.08.03,20.17.04,30.25,0,2.08.27,4.14.87,6.13,1.49,4.9,5.43,7.63,11.23,7.9,4.9.22,9.25-1.57,13.54-3.6.48-.23.94-.5,1.42-.71,2.08-.91,4.08-.17,4.82,1.96,1.5,4.32,3.12,8.6,4.31,13.03.79,2.97.19,4.57-2.31,6.36-2.21,1.59-4.64,2.76-7.17,3.73-11.19,4.29-22.56,4.97-33.95,1-12.13-4.23-18.75-13.15-20.87-25.62-1.06-6.23-.47-12.52-.61-18.78-.03-1.3,0-2.61,0-3.91ZM389.7,104.2c0,23.35,0,46.7,0,70.05,0,3-1.94,4.94-4.94,4.94-6.37,0-12.74,0-19.1,0-2.61,0-4.66-2.03-4.66-4.64,0-46.94,0-93.88,0-140.82,0-2.62,2.01-4.63,4.64-4.64,6.46,0,12.93,0,19.39,0,2.69,0,4.66,2.03,4.66,4.77,0,23.45,0,46.89,0,70.34ZM434.92,139.14c0,11.92,0,23.84,0,35.76,0,2.62-1.93,4.29-4.92,4.29-6.37,0-12.73,0-19.1,0-2.56,0-4.7-1.81-4.7-4.01,0-23.96,0-47.93,0-71.89,0-2.25,2.05-4.03,4.66-4.03,6.46,0,12.93,0,19.39,0,2.7,0,4.67,1.74,4.67,4.12,0,11.92,0,23.84,0,35.76ZM421.57,59.88c8.34,0,14.43,6.11,14.42,14.44-.01,8.28-6.27,14.48-14.51,14.39-8.27-.09-14.36-6.2-14.36-14.41,0-8.32,6.12-14.42,14.45-14.42ZM421.49,37.08c0,5.85-3.2,7.82-8.59,7.82-.68,0-1.4-.03-2.14-.09v4.55c0,.91-.51,1.41-1.41,1.41h-1.44c-.91,0-1.41-.51-1.41-1.41v-15.29c0-3.44,1.92-4.83,6.41-4.83,5.39,0,8.59,1.98,8.59,7.84ZM417.22,37.08c0-3.18-1.2-4.24-4.03-4.24-2.18,0-2.43.61-2.43,2.06v6.24c.91.11,1.71.17,2.4.17,2.86,0,4.06-1.05,4.06-4.23ZM425.58,37.08c0-4.99,2.75-7.84,7.78-7.84s7.78,2.84,7.78,7.84-2.75,7.82-7.78,7.82-7.78-2.84-7.78-7.82ZM436.8,37.08c0-2.98-1.14-4.24-3.44-4.24s-3.44,1.26-3.44,4.24,1.14,4.23,3.44,4.23,3.44-1.28,3.44-4.23ZM460.67,36.36v6.85c0,.91-.51,1.41-1.41,1.41h-1.44c-.91,0-1.41-.51-1.41-1.41v-6.91c0-2.7-.98-3.46-3.29-3.46s-3.29.75-3.29,3.46v6.91c0,.91-.51,1.41-1.41,1.41h-1.44c-.91,0-1.41-.51-1.41-1.41v-6.85c0-5.52,2.78-7.12,7.56-7.12s7.56,1.6,7.56,7.12ZM473.93,33.02h-4.18v6.02c0,1.57.69,2.23,2.38,2.23.81,0,1.34-.17,1.87-.17.95,0,1.32.37,1.32,1.12v.77c0,.78-.37,1.35-1.14,1.51-4.89,1.17-8.79-.08-8.79-5.45v-11.62c0-.91.51-1.41,1.41-1.41h1.52c.91,0,1.41.51,1.41,1.41v2.09h4.18c.91,0,1.41.51,1.41,1.41v.68c0,.91-.51,1.41-1.41,1.41ZM478.79,37.08c0-4.99,2.75-7.84,7.78-7.84s7.78,2.84,7.78,7.84-2.75,7.82-7.78,7.82-7.78-2.84-7.78-7.82ZM490.01,37.08c0-2.98-1.14-4.24-3.44-4.24s-3.44,1.26-3.44,4.24,1.14,4.23,3.44,4.23,3.44-1.28,3.44-4.23Z"/>
  </g>
</svg>