<?xml version="1.0" encoding="utf-8"?>
<!-- Generator: Adobe Illustrator 22.1.0, SVG Export Plug-In . SVG Version: 6.00 Build 0)  -->
<svg version="1.1" id="Layer_1" xmlns="http://www.w3.org/2000/svg" xmlns:xlink="http://www.w3.org/1999/xlink" x="0px" y="0px"
	 viewBox="0 0 102.3 41.2" style="enable-background:new 0 0 102.3 41.2;" xml:space="preserve">
<style type="text/css">
	.st0{fill:#E94C4D;}
	.st1{fill:#AEADAD;}
	.st2{fill:#FFFFFF;}
</style>
<g>
	<g>
		<path class="st2" d="M53.5,17.4v-3.7c0-4.9,3.4-7.4,7.8-7.4c2,0,3.5,0.4,4.4,0.9c0.4,0.2,0.6,0.4,0.6,0.7c0,0.2-0.1,0.4-0.2,0.8
			L65.2,11c-0.2,0.4-0.6,0.6-1.1,0.4c-0.6-0.2-1.6-0.4-2.3-0.4c-1.6,0-2.8,0.9-2.8,3.2v3.3h5.3c0.3,0,0.6,0.3,0.6,0.6v3.4
			c0,0.3-0.3,0.6-0.6,0.6H59v12.2c0,0.3-0.5,0.7-0.7,0.7h-4c-0.3,0-0.7-0.5-0.7-0.7V22h-2c-0.3,0-0.6-0.3-0.6-0.6V18
			c0-0.3,0.3-0.6,0.6-0.6H53.5z"/>
		<path class="st2" d="M74.9,34.2c0,0.3-0.5,0.7-0.7,0.7h-4c-0.3,0-0.7-0.5-0.7-0.7V7.1c0-0.3,0.5-0.7,0.7-0.7h4
			c0.3,0,0.7,0.5,0.7,0.7V34.2z"/>
		<path class="st2" d="M83.5,34.2c0,0.3-0.5,0.7-0.7,0.7h-4c-0.3,0-0.7-0.5-0.7-0.7V18.1c0-0.3,0.5-0.7,0.7-0.7h4
			c0.3,0,0.7,0.5,0.7,0.7V34.2z"/>
		<path class="st2" d="M87.1,21.6c-0.3,0-0.6-0.3-0.6-0.6v-3.4c0-0.3,0.3-0.6,0.6-0.6h2v-4c0-0.3,0.5-0.7,0.7-0.7h4
			c0.3,0,0.7,0.5,0.7,0.7v4h5.5c0.3,0,0.6,0.3,0.6,0.6V21c0,0.3-0.3,0.6-0.6,0.6h-5.5v6c0,2.1,1,2.7,2.6,2.7c0.9,0,1.9-0.5,2.6-0.8
			c0.4-0.2,0.8,0,0.9,0.3l0.7,2.1c0.1,0.3,0.2,0.6,0.2,0.8c0,0.3-0.2,0.6-0.6,0.9c-0.9,0.6-2.7,1.3-4.7,1.3c-4.1,0-7.1-2.3-7.1-6.9
			v-6.5H87.1z"/>
	</g>
	<g>
		<g>
			<path class="st2" d="M28,15.1c-2.7-3.8-8-5-12.1-2.8c-4.1,2.1-6,7.1-4.5,11.4c1.4,4.2,5.7,6.8,10.1,6.3c1.1-0.1,2.2-0.5,3.3-1
				c0.9-0.5,1.8-1.5,2.9-1.3c1,0.2,1.6,1.3,1.2,2.2c-0.4,0.9-1.7,1.6-2.6,2c-4,2.1-8.9,1.9-12.7-0.5c-3.5-2.2-5.8-6-6-10.2
				c-0.2-4.5,2-8.9,5.7-11.3c3.7-2.5,8.6-2.8,12.6-0.9c4,1.9,6.8,5.8,7.2,10.3c0.1,1,0.2,2.5-0.1,3.5c-0.4,1.2-2,1.5-2.8,0.6
				c-0.5-0.6-0.3-1.5-0.3-2.4c0.1-1.2-0.1-2.3-0.5-3.4C29,16.7,28.5,15.9,28,15.1z"/>
		</g>
		<g>
			<path class="st2" d="M15.2,18.9c0.5-0.3,1.2-0.2,1.7,0.2c0.9,0.7,0.3,1.7,0.7,2.9c0,0.1,0.1,0.3,0.2,0.4c1.8,2.3,4.7,1.5,5.5-0.6
				c0.3-0.7,0.2-1.4,0-2.1c-0.3-0.7-0.4-1.5,0.3-2c1.2-1,2.3,0,2.7,1.1c0.4,1.1,0.5,2.3,0.2,3.4c-0.5,2.3-2.3,4.1-4.6,4.6
				c-2.1,0.5-4.4-0.2-5.9-1.7c-0.7-0.8-1.2-1.7-1.5-2.7C14.2,21.2,14,19.5,15.2,18.9z"/>
		</g>
		<path class="st2" d="M36.4,31.6c4.2-6.2,4.5-14.5,0.6-20.9c-0.7-1.1-1.7-3.3-3.4-3c-0.7,0.2-1.3,0.9-1.3,1.6
			c0,0.9,0.9,1.9,1.4,2.6c2,3.1,3,6.8,2.6,10.5c-0.8,6.9-6.1,12.7-12.9,14c-6.9,1.4-14.1-2-17.4-8.3C3,22.5,3.8,15.3,7.9,10.3
			c1.9-2.2,4.3-3.9,7.1-4.9c1.4-0.5,2.7-0.7,4.2-0.8c0.7,0,1.6,0,2.2-0.5c0.6-0.5,0.8-1.3,0.5-2c-0.7-1.4-2.7-0.9-4-0.8
			c-1.5,0.2-3,0.6-4.4,1.1c-2.7,1-5.2,2.7-7.2,4.8C1.9,11.7,0,18,1.1,24.1c1.3,6.9,6.3,12.8,13,15c6.5,2.2,13.9,0.7,19.1-3.8
			C34.4,34.2,35.5,33,36.4,31.6z"/>
	</g>
	<path class="st2" d="M80.9,9.5c1.7,0,2.7,1.2,2.7,2.7s-1.1,2.7-2.7,2.7c-1.7,0-2.7-1.2-2.7-2.7S79.3,9.5,80.9,9.5z"/>
</g>
</svg>
